<?xml version="1.0" encoding="UTF-8"?><svg id="a" xmlns="http://www.w3.org/2000/svg" viewBox="0 0 1000 1000"><path d="M302.99,473.91c0-18.82,14.52-32.19,34.86-32.19,13.13,0,23.47,5.69,28,15.92l-14.06,7.55c-3.37-5.93-8.37-8.6-14.06-8.6-9.18,0-16.38,6.39-16.38,17.31s7.2,17.31,16.38,17.31c5.69,0,10.69-2.56,14.06-8.6l14.06,7.67c-4.53,9.99-14.87,15.8-28,15.8-20.33,0-34.86-13.36-34.86-32.19Z" fill="#ff7900"/><path d="M428.83,469.49v35.67h-16.96v-7.79c-3.37,5.69-9.88,8.71-19.06,8.71-14.64,0-23.36-8.13-23.36-18.94s7.79-18.71,26.84-18.71h14.41c0-7.79-4.65-12.32-14.41-12.32-6.62,0-13.48,2.21-18.01,5.81l-6.51-12.67c6.86-4.88,16.96-7.55,26.96-7.55,19.06,0,30.09,8.83,30.09,27.77ZM410.71,485.41v-6.39h-12.43c-8.48,0-11.16,3.14-11.16,7.32,0,4.53,3.83,7.55,10.23,7.55,6.04,0,11.27-2.79,13.36-8.48Z" fill="#ff7900"/><path d="M481.24,441.72v16.73c-1.51-.12-2.67-.23-4.07-.23-9.99,0-16.62,5.46-16.62,17.43v29.51h-18.13v-62.51h17.31v8.25c4.42-6.04,11.85-9.18,21.5-9.18Z" fill="#ff7900"/><path d="M553.16,442.65v52.06c0,23.24-12.55,33.93-35.09,33.93-11.85,0-23.36-2.91-30.68-8.6l7.2-13.01c5.34,4.3,14.06,7.09,22.08,7.09,12.78,0,18.36-5.81,18.36-17.08v-2.67c-4.76,5.23-11.62,7.79-19.75,7.79-17.31,0-31.26-11.97-31.26-30.21s13.94-30.21,31.26-30.21c8.71,0,15.92,2.9,20.68,8.95v-8.02h17.2ZM535.27,471.93c0-9.18-6.86-15.34-16.38-15.34s-16.5,6.16-16.5,15.34,6.97,15.34,16.5,15.34,16.38-6.16,16.38-15.34Z" fill="#ff7900"/><path d="M562.58,473.91c0-18.82,14.52-32.19,34.39-32.19s34.28,13.36,34.28,32.19-14.41,32.19-34.28,32.19-34.39-13.36-34.39-32.19ZM612.89,473.91c0-10.81-6.86-17.31-15.92-17.31s-16.04,6.51-16.04,17.31,6.97,17.31,16.04,17.31,15.92-6.51,15.92-17.31Z" fill="#ff7900"/><path d="M746.16,469.38v35.79h-18.13v-33c0-10.11-4.53-14.76-11.85-14.76-8.13,0-13.83,5.23-13.83,16.38v31.37h-18.13v-33c0-10.11-4.3-14.76-11.85-14.76-8.02,0-13.71,5.23-13.71,16.38v31.37h-18.13v-62.51h17.31v7.2c4.65-5.35,11.62-8.13,19.64-8.13,8.71,0,16.15,3.37,20.57,10.23,5-6.39,13.13-10.23,22.54-10.23,14.87,0,25.56,8.6,25.56,27.65Z" fill="#ff7900"/><path d="M814.95,469.49v35.67h-16.96v-7.79c-3.37,5.69-9.88,8.71-19.06,8.71-14.64,0-23.36-8.13-23.36-18.94s7.79-18.71,26.84-18.71h14.41c0-7.79-4.65-12.32-14.41-12.32-6.62,0-13.48,2.21-18.01,5.81l-6.51-12.67c6.86-4.88,16.96-7.55,26.96-7.55,19.06,0,30.09,8.83,30.09,27.77ZM796.83,485.41v-6.39h-12.43c-8.48,0-11.16,3.14-11.16,7.32,0,4.53,3.83,7.55,10.23,7.55,6.04,0,11.27-2.79,13.36-8.48Z" fill="#ff7900"/><path d="M868.87,502.14c-3.72,2.67-9.18,3.95-14.76,3.95-14.76,0-23.35-7.55-23.35-22.43v-25.68h-9.64v-13.94h9.64v-15.22h18.13v15.22h15.57v13.94h-15.57v25.45c0,5.34,2.91,8.25,7.79,8.25,2.67,0,5.34-.81,7.32-2.32l4.88,12.78Z" fill="#ff7900"/><path d="M935.21,479.02h-47.29c1.74,7.79,8.37,12.55,17.89,12.55,6.62,0,11.39-1.98,15.69-6.04l9.64,10.46c-5.81,6.62-14.52,10.11-25.79,10.11-21.61,0-35.67-13.6-35.67-32.19s14.29-32.19,33.35-32.19,32.54,12.32,32.54,32.42c0,1.39-.23,3.37-.35,4.88ZM887.69,468.45h30.79c-1.28-7.9-7.2-13.01-15.34-13.01s-14.18,5-15.45,13.01Z" fill="#ff7900"/><path d="M304.94,554.33c0-9.85,7.6-16.84,18.24-16.84,6.87,0,12.28,2.98,14.65,8.33l-7.36,3.95c-1.76-3.1-4.38-4.5-7.36-4.5-4.8,0-8.57,3.34-8.57,9.06s3.77,9.06,8.57,9.06c2.98,0,5.59-1.34,7.36-4.5l7.36,4.01c-2.37,5.23-7.78,8.27-14.65,8.27-10.64,0-18.24-6.99-18.24-16.84Z" fill="#fff"/><path d="M373.28,557.01h-24.75c.91,4.07,4.38,6.57,9.36,6.57,3.47,0,5.96-1.03,8.21-3.16l5.05,5.47c-3.04,3.47-7.6,5.29-13.5,5.29-11.31,0-18.67-7.11-18.67-16.84s7.48-16.84,17.45-16.84,17.03,6.45,17.03,16.96c0,.73-.12,1.76-.18,2.55ZM348.41,551.47h16.11c-.67-4.13-3.77-6.81-8.03-6.81s-7.42,2.61-8.09,6.81Z" fill="#fff"/><path d="M399.43,569.11c-1.95,1.4-4.8,2.07-7.72,2.07-7.72,0-12.22-3.95-12.22-11.74v-13.44h-5.05v-7.3h5.05v-7.97h9.49v7.97h8.15v7.3h-8.15v13.32c0,2.8,1.52,4.32,4.07,4.32,1.4,0,2.8-.43,3.83-1.22l2.55,6.69Z" fill="#fff"/><path d="M434.15,557.01h-24.75c.91,4.07,4.38,6.57,9.36,6.57,3.47,0,5.96-1.03,8.21-3.16l5.05,5.47c-3.04,3.47-7.6,5.29-13.5,5.29-11.31,0-18.67-7.11-18.67-16.84s7.48-16.84,17.45-16.84,17.03,6.45,17.03,16.96c0,.73-.12,1.76-.18,2.55ZM409.28,551.47h16.11c-.67-4.13-3.77-6.81-8.03-6.81s-7.42,2.61-8.09,6.81Z" fill="#fff"/><path d="M494.47,551.96v18.73h-9.49v-17.27c0-5.29-2.37-7.72-6.2-7.72-4.26,0-7.24,2.74-7.24,8.57v16.42h-9.49v-17.27c0-5.29-2.25-7.72-6.2-7.72-4.2,0-7.17,2.74-7.17,8.57v16.42h-9.49v-32.71h9.06v3.77c2.43-2.8,6.08-4.26,10.28-4.26,4.56,0,8.45,1.76,10.76,5.35,2.61-3.34,6.87-5.35,11.8-5.35,7.78,0,13.38,4.5,13.38,14.47Z" fill="#fff"/><path d="M277.38,554.67c-.03-.24-.07-.47-.11-.7-.09-.44-.21-.88-.35-1.3,0-.02-.01-.05-.02-.07-.23-.66-.51-1.28-.84-1.88-.23-.4-.48-.79-.75-1.17,0-.01-.01-.02-.02-.03-.83-1.1-1.84-2.06-3.01-2.81l-1.32-.75c-1.36-.65-2.87-1.05-4.48-1.14-2.07-.11-4.03.31-5.76,1.14l-1.47.85-57.63,33.27s-.09.05-.14.07c-.08.05-.17.09-.25.13-.01,0-.03,0-.04.02-.1.06-.21.11-.31.14-.17.08-.34.14-.51.2-.18.06-.36.11-.54.16-.37.09-.74.15-1.11.18-.09.01-.18.02-.28.01-.52.03-1.03-.01-1.54-.1-.14-.02-.27-.05-.41-.09-.25-.06-.5-.13-.75-.23-.14-.05-.29-.11-.43-.18-.05-.02-.09-.04-.14-.06-.09-.05-.17-.09-.24-.13-.04-.02-.08-.04-.12-.06-.04-.02-.08-.04-.12-.06l-64.15-37.04c-.13-.08-.26-.16-.39-.25-.38-.26-.74-.55-1.06-.87-1.28-1.29-2.02-3.03-2.02-4.88v-74.08c0-1.86.74-3.61,2.02-4.89.11-.11.21-.21.33-.31.22-.2.47-.39.72-.56h0c.13-.08.26-.16.39-.24l64.15-37.04s.08-.04.12-.07c.04-.03.08-.05.12-.06.12-.07.25-.14.38-.19.14-.07.28-.13.43-.18.25-.1.5-.17.75-.23.14-.03.27-.06.41-.09.6-.12,1.21-.15,1.82-.09.38.03.75.09,1.11.18.18.04.36.1.54.16.17.06.34.12.51.2.11.04.21.09.31.14.1.04.2.09.29.15.05.02.09.04.14.07l57.63,33.27,1.47.85c1.73.83,3.69,1.25,5.76,1.14,1.61-.09,3.12-.49,4.48-1.14l.26-.15.99-.56s.04-.02.07-.04c1.17-.75,2.18-1.71,3.01-2.81.01,0,.02-.02.02-.03.27-.38.52-.77.75-1.17.33-.6.61-1.22.84-1.88.01-.02.02-.05.02-.07.14-.42.26-.86.35-1.3.04-.23.08-.46.11-.7.03-.19.05-.37.06-.56.04-.49.05-.98.02-1.48-.06-.98-.24-1.93-.53-2.83-.08-.23-.16-.45-.24-.67h0c-.95-2.41-2.71-4.39-4.94-5.66l-70.13-40.49c-2.14-1.24-4.78-1.24-6.93,0l-86.92,50.18c-2.14,1.24-3.46,3.53-3.46,6v100.37c0,2.48,1.32,4.76,3.46,6l86.92,50.18c2.15,1.24,4.79,1.24,6.93,0l70.13-40.49c2.23-1.27,3.99-3.25,4.94-5.65t0,0c.08-.22.16-.44.24-.67.29-.9.47-1.85.53-2.83.03-.5.02-.99-.02-1.48-.01-.19-.03-.37-.06-.56Z" fill="#ff7900"/><path d="M157.53,473.69c.01.12.03.23.05.34.04.21.1.42.17.63,0,0,0,.02,0,.03.11.32.25.62.4.9.11.19.23.38.36.56,0,0,0,0,0,.01.4.53.89.99,1.45,1.35l.64.36c.65.31,1.38.51,2.16.55,1,.05,1.94-.15,2.77-.55l.71-.41,27.74-16.01s.04-.02.07-.03c.04-.02.08-.04.12-.06,0,0,.01,0,.02,0,.05-.03.1-.05.15-.07.08-.04.16-.07.25-.1.09-.03.17-.05.26-.08.18-.04.36-.07.53-.09.04,0,.09,0,.13,0,.25-.01.5,0,.74.05.07,0,.13.02.2.04.12.03.24.06.36.11.07.02.14.05.21.09.02,0,.04.02.07.03.04.02.08.04.12.06.02,0,.04.02.06.03.02,0,.04.02.06.03l30.87,17.83c.06.04.13.08.19.12.18.13.36.26.51.42.62.62.97,1.46.97,2.35v35.65c0,.9-.36,1.74-.97,2.35-.05.05-.1.1-.16.15-.11.1-.23.19-.35.27h0c-.06.04-.13.08-.19.12l-30.87,17.83s-.04.02-.06.03c-.02.01-.04.02-.06.03-.06.03-.12.07-.18.09-.07.03-.13.06-.21.09-.12.05-.24.08-.36.11-.07.01-.13.03-.2.04-.29.06-.58.07-.88.04-.18-.01-.36-.04-.53-.09-.09-.02-.17-.05-.26-.08-.08-.03-.16-.06-.25-.1-.05-.02-.1-.04-.15-.07-.05-.02-.1-.04-.14-.07-.02,0-.04-.02-.07-.03l-27.74-16.01-.71-.41c-.83-.4-1.78-.6-2.77-.55-.77.04-1.5.24-2.16.55l-.13.07-.48.27s-.02,0-.03.02c-.56.36-1.05.82-1.45,1.35,0,0,0,0,0,.01-.13.18-.25.37-.36.56-.16.29-.29.59-.4.9,0,0,0,.02,0,.03-.07.2-.13.41-.17.63-.02.11-.04.22-.05.34-.01.09-.02.18-.03.27-.02.24-.02.47,0,.71.03.47.12.93.26,1.36.04.11.08.22.12.32h0c.46,1.16,1.3,2.11,2.38,2.72l33.75,19.49c1.03.6,2.3.6,3.34,0l41.83-24.15c1.03-.6,1.67-1.7,1.67-2.89v-48.3c0-1.19-.64-2.29-1.67-2.89l-41.83-24.15c-1.03-.6-2.31-.6-3.34,0l-33.75,19.49c-1.07.61-1.92,1.56-2.38,2.72t0,0c-.04.11-.08.21-.12.32-.14.43-.23.89-.26,1.36-.01.24,0,.48,0,.71,0,.09.01.18.03.27Z" fill="#ff7900" stroke="#ff7900" stroke-miterlimit="10" stroke-width="8"/></svg>